<?xml version="1.0" encoding="utf-8"?>
<!-- Generator: Adobe Illustrator 19.0.0, SVG Export Plug-In . SVG Version: 6.00 Build 0)  -->
<svg version="1.1" xmlns="http://www.w3.org/2000/svg" xmlns:xlink="http://www.w3.org/1999/xlink" x="0px" y="0px"
	 viewBox="0 0 457.9 432.7" style="enable-background:new 0 0 457.9 432.7;" xml:space="preserve">
<style type="text/css">
	.st0{fill:#FFFFFF;}
	.st1{fill:#8AEB00;}
	.st2{fill:#377604;}
	.st3{fill:#017E00;}
</style>
<g id="Layer_1">
</g>
<g id="Layer_3">
	<g id="XMLID_79_">
		<g id="XMLID_93_">
			<g id="XMLID_95_">
				<path id="XMLID_89_" d="M385.5,204.6c0,8.7-7,15.7-15.7,15.7H95.1c-8.7,0-15.7-7-15.7-15.7v-189C79.4,7,86.4,0,95.1,0h274.8
					c8.7,0,15.7,7,15.7,15.7V204.6z"/>
			</g>
			<g id="XMLID_94_">
				<path id="XMLID_90_" class="st0" d="M102.1,195.9c-2.9,0-5.2-2.3-5.2-5.2v-161c0-2.9,2.3-5.2,5.2-5.2h260.7
					c2.9,0,5.2,2.3,5.2,5.2v161c0,2.9-2.3,5.2-5.2,5.2H102.1z"/>
				<path id="XMLID_80_" class="st1" d="M362.8,27.2c1.4,0,2.5,1.1,2.5,2.5v161c0,1.4-1.1,2.5-2.5,2.5H102.1c-1.4,0-2.5-1.1-2.5-2.5
					v-161c0-1.4,1.1-2.5,2.5-2.5H362.8 M362.8,21.9H102.1c-4.3,0-7.8,3.5-7.8,7.8v161c0,4.3,3.5,7.8,7.8,7.8h260.7
					c4.3,0,7.8-3.5,7.8-7.8v-161C370.7,25.4,367.2,21.9,362.8,21.9L362.8,21.9z"/>
			</g>
		</g>
		<g id="XMLID_3_">
			<path id="XMLID_6_" class="st2" d="M395.7,293.6C395.7,293.6,395.7,293.6,395.7,293.6c-3,0-322.3,0-325.3,0
				c-6.2,0-14.9-1.4-21.4-7.9l0,0V278l0,0l34.4-42.9h299.4l0,0.1l34.4,42.9v7.6l0,0C410.6,292.2,401.9,293.6,395.7,293.6z"/>
			<path id="XMLID_46_" d="M400.7,285.5C400.7,285.5,400.7,285.5,400.7,285.5c-3.1,0-332.2,0-335.3,0c-6.4,0-15.3-1.4-22.1-8.2l0,0
				v-7.9l0,0l35.5-44.2h308.6l0,0.1l35.4,44.2v7.9l0,0C416.1,284.1,407.1,285.5,400.7,285.5z"/>
			<g id="XMLID_4_">
				<polygon id="XMLID_45_" class="st0" points="266.1,234.9 265.5,230.7 249,230.7 249.1,234.9 				"/>
				<polygon id="XMLID_44_" class="st0" points="127.5,230.7 111,230.7 108.2,234.9 125.3,234.9 				"/>
				<polygon id="XMLID_43_" class="st0" points="149.8,230.7 133.4,230.7 131.1,234.9 148,234.9 				"/>
				<polygon id="XMLID_42_" class="st0" points="338.2,234.9 335.9,230.7 319.5,230.7 321.3,234.9 				"/>
				<polygon id="XMLID_41_" class="st0" points="102,234.9 104.8,230.7 91.1,230.7 87.6,234.9 				"/>
				<polygon id="XMLID_40_" class="st0" points="173.3,230.7 155.4,230.7 153.6,234.9 172.1,234.9 				"/>
				<polygon id="XMLID_39_" class="st0" points="364.5,230.7 367.3,234.9 379.7,234.9 376.5,230.7 				"/>
				<polygon id="XMLID_38_" class="st0" points="315.7,234.9 313.9,230.7 296,230.7 297.2,234.9 				"/>
				<polygon id="XMLID_37_" class="st0" points="361.1,234.9 358.3,230.7 341.8,230.7 344,234.9 				"/>
				<polygon id="XMLID_36_" class="st0" points="290.6,230.7 270.7,230.7 271.4,234.9 291.8,234.9 				"/>
				<polygon id="XMLID_35_" class="st0" points="243.9,230.7 225.4,230.7 225.4,234.9 243.9,234.9 				"/>
				<polygon id="XMLID_34_" class="st0" points="177.5,234.9 198,234.9 198.6,230.7 178.7,230.7 				"/>
				<polygon id="XMLID_33_" class="st0" points="220.3,230.7 203.8,230.7 203.2,234.9 220.2,234.9 				"/>
				<polygon id="XMLID_32_" class="st0" points="220.1,237.1 202.8,237.1 202,243 220,243 				"/>
				<polygon id="XMLID_31_" class="st0" points="244,237.1 225.3,237.1 225.2,243 244.1,243 				"/>
				<polygon id="XMLID_30_" class="st0" points="120.9,243 124,237.1 106.7,237.1 102.9,243 				"/>
				<polygon id="XMLID_29_" class="st0" points="96.6,243 100.5,237.1 85.7,237.1 80.8,243 				"/>
				<polygon id="XMLID_28_" class="st0" points="368.8,237.1 372.7,243 385.8,243 381.4,237.1 				"/>
				<polygon id="XMLID_27_" class="st0" points="129.9,237.1 126.8,243 144.7,243 147.1,237.1 				"/>
				<polygon id="XMLID_26_" class="st0" points="249.3,243 267.3,243 266.5,237.1 249.2,237.1 				"/>
				<polygon id="XMLID_25_" class="st0" points="348.4,243 366.5,243 362.6,237.1 345.3,237.1 				"/>
				<polygon id="XMLID_24_" class="st0" points="316.6,237.1 297.8,237.1 299.4,243 319,243 				"/>
				<polygon id="XMLID_23_" class="st0" points="339.4,237.1 322.2,237.1 324.6,243 342.5,243 				"/>
				<polygon id="XMLID_22_" class="st0" points="175.2,243 196.8,243 197.6,237.1 176.9,237.1 				"/>
				<polygon id="XMLID_21_" class="st0" points="150.3,243 169.9,243 171.5,237.1 152.7,237.1 				"/>
				<polygon id="XMLID_20_" class="st0" points="292.4,237.1 271.7,237.1 272.6,243 294.1,243 				"/>
				<polygon id="XMLID_19_" class="st0" points="350,246 354.7,254.8 374.3,254.8 368.5,246 				"/>
				<polygon id="XMLID_18_" class="st0" points="95,254.8 114.6,254.8 119.3,246 100.8,246 				"/>
				<polygon id="XMLID_17_" class="st0" points="70.9,254.8 88.8,254.8 94.6,246 78.2,246 				"/>
				<polygon id="XMLID_16_" class="st0" points="145.4,254.8 166.5,254.8 169,246 149,246 				"/>
				<polygon id="XMLID_15_" class="st0" points="374.7,246 380.5,254.8 394.8,254.8 388.2,246 				"/>
				<polygon id="XMLID_14_" class="st0" points="120.4,254.8 139.8,254.8 143.4,246 125.1,246 				"/>
				<polygon id="XMLID_12_" class="st0" points="249.5,254.8 269.1,254.8 267.8,246 249.3,246 				"/>
				<polygon id="XMLID_11_" class="st0" points="171.9,254.8 195,254.8 196.3,246 174.4,246 				"/>
				<polygon id="XMLID_10_" class="st0" points="273,246 274.3,254.8 297.4,254.8 294.9,246 				"/>
				<polygon id="XMLID_9_" class="st0" points="220,246 201.5,246 200.2,254.8 219.8,254.8 				"/>
				<polygon id="XMLID_8_" class="st0" points="244.2,246 225.1,246 225,254.8 244.3,254.8 				"/>
				<polygon id="XMLID_7_" class="st0" points="300.3,246 302.8,254.8 323.9,254.8 320.3,246 				"/>
				<polygon id="XMLID_5_" class="st0" points="325.9,246 329.5,254.8 348.9,254.8 344.2,246 				"/>
				<polygon id="XMLID_50_" class="st0" points="199.4,259.7 198.6,265.6 270.7,265.6 269.9,259.7 				"/>
			</g>
		</g>
		<g id="XMLID_51_">
			<path id="XMLID_57_" class="st3" d="M229.4,153.4c-16.6,0-30.2-13.5-30.2-30.2s13.5-30.2,30.2-30.2s30.2,13.5,30.2,30.2
				S246,153.4,229.4,153.4z M229.4,104.5c-10.4,0-18.8,8.4-18.8,18.8s8.4,18.8,18.8,18.8s18.8-8.4,18.8-18.8
				S239.7,104.5,229.4,104.5z"/>
			<path id="XMLID_60_" class="st3" d="M214.1,105.1c-1,0-1.9-0.4-2.5-1.3l-20-28l9.2-24.6c0.6-1.6,2.4-2.4,4-1.8
				c1.6,0.6,2.4,2.4,1.8,4l-8,21.5l18.1,25.4c1,1.4,0.7,3.3-0.7,4.3C215.4,105,214.7,105.1,214.1,105.1z"/>
			<path id="XMLID_62_" class="st3" d="M211.4,108.2c-0.4,0-0.8-0.1-1.2-0.3l-27.9-12.1l-20.8-33.7c-0.9-1.4-0.4-3.3,1-4.2
				c1.4-0.9,3.3-0.4,4.2,1l19.8,32l26.1,11.3c1.6,0.7,2.3,2.5,1.6,4C213.7,107.5,212.6,108.2,211.4,108.2z"/>
			<path id="XMLID_61_" class="st3" d="M153,143.8c-0.7,0-1.4-0.2-2-0.7c-1.3-1.1-1.5-3-0.4-4.3l26.1-30.8l30.2-1
				c1.7-0.1,3.1,1.3,3.2,3c0.1,1.7-1.3,3.1-3,3.2l-27.5,0.9l-24.3,28.7C154.8,143.5,153.9,143.8,153,143.8z"/>
			<path id="XMLID_123_" class="st3" d="M183.4,171.5c-1.7,0-3.1-1.4-3.1-3.1v-37.8l22-11c1.5-0.8,3.4-0.1,4.1,1.4
				c0.8,1.5,0.1,3.4-1.4,4.1l-18.6,9.3v34C186.5,170.1,185.1,171.5,183.4,171.5z"/>
			<g id="XMLID_122_">
				<path id="XMLID_119_" class="st3" d="M205.7,54.3c-4.6,0-8.3-3.7-8.3-8.3s3.7-8.3,8.3-8.3s8.3,3.7,8.3,8.3
					S210.3,54.3,205.7,54.3z M205.7,42.8c-1.8,0-3.2,1.4-3.2,3.2c0,1.8,1.4,3.2,3.2,3.2s3.2-1.4,3.2-3.2
					C209,44.2,207.5,42.8,205.7,42.8z"/>
			</g>
			<g id="XMLID_118_">
				<path id="XMLID_115_" class="st3" d="M161.1,63.4c-4.6,0-8.3-3.7-8.3-8.3s3.7-8.3,8.3-8.3s8.3,3.7,8.3,8.3
					S165.7,63.4,161.1,63.4z M161.1,51.9c-1.8,0-3.2,1.4-3.2,3.2s1.4,3.2,3.2,3.2s3.2-1.4,3.2-3.2S162.9,51.9,161.1,51.9z"/>
			</g>
			<g id="XMLID_114_">
				<path id="XMLID_111_" class="st3" d="M149,154.1c-4.6,0-8.3-3.7-8.3-8.3c0-4.6,3.7-8.3,8.3-8.3s8.3,3.7,8.3,8.3
					C157.3,150.4,153.6,154.1,149,154.1z M149,142.6c-1.8,0-3.2,1.4-3.2,3.2c0,1.8,1.4,3.2,3.2,3.2c1.8,0,3.2-1.4,3.2-3.2
					C152.3,144,150.8,142.6,149,142.6z"/>
			</g>
			<g id="XMLID_110_">
				<path id="XMLID_101_" class="st3" d="M183.4,182.5c-4.6,0-8.3-3.7-8.3-8.3c0-4.6,3.7-8.3,8.3-8.3s8.3,3.7,8.3,8.3
					C191.7,178.8,188,182.5,183.4,182.5z M183.4,171c-1.8,0-3.2,1.4-3.2,3.2c0,1.8,1.4,3.2,3.2,3.2s3.2-1.4,3.2-3.2
					C186.6,172.5,185.2,171,183.4,171z"/>
			</g>
			<path id="XMLID_99_" class="st3" d="M244.4,105.1c-0.6,0-1.2-0.2-1.8-0.6c-1.4-1-1.7-2.9-0.7-4.3L260,74.9l-8-21.5
				c-0.6-1.6,0.2-3.4,1.8-4c1.6-0.6,3.4,0.2,4,1.8l9.2,24.6l-20,28C246.3,104.7,245.3,105.1,244.4,105.1z"/>
			<path id="XMLID_98_" class="st3" d="M247.2,108.2c-1.2,0-2.3-0.7-2.8-1.9c-0.7-1.6,0-3.4,1.6-4L272.1,91l19.8-32
				c0.9-1.4,2.8-1.9,4.2-1c1.4,0.9,1.9,2.8,1,4.2l-20.8,33.7L248.4,108C248,108.1,247.6,108.2,247.2,108.2z"/>
			<path id="XMLID_96_" class="st3" d="M305.5,143.8c-0.9,0-1.7-0.4-2.3-1.1L278.9,114l-27.5-0.9c-1.7-0.1-3-1.5-3-3.2s1.5-3,3.2-3
				l30.2,1l26.1,30.8c1.1,1.3,0.9,3.2-0.4,4.3C306.9,143.6,306.2,143.8,305.5,143.8z"/>
			<path id="XMLID_105_" class="st3" d="M275.1,171.5c-1.7,0-3.1-1.4-3.1-3.1v-34l-18.6-9.3c-1.5-0.8-2.1-2.6-1.4-4.1
				c0.8-1.5,2.6-2.1,4.1-1.4l22,11v37.8C278.2,170.1,276.8,171.5,275.1,171.5z"/>
			<g id="XMLID_104_">
				<path id="XMLID_84_" class="st3" d="M252.8,54.3c-4.6,0-8.3-3.7-8.3-8.3s3.7-8.3,8.3-8.3c4.6,0,8.3,3.7,8.3,8.3
					S257.4,54.3,252.8,54.3z M252.8,42.8c-1.8,0-3.2,1.4-3.2,3.2c0,1.8,1.4,3.2,3.2,3.2c1.8,0,3.2-1.4,3.2-3.2
					C256,44.2,254.6,42.8,252.8,42.8z"/>
			</g>
			<g id="XMLID_83_">
				<path id="XMLID_77_" class="st3" d="M297.4,63.4c-4.6,0-8.3-3.7-8.3-8.3s3.7-8.3,8.3-8.3c4.6,0,8.3,3.7,8.3,8.3
					S302,63.4,297.4,63.4z M297.4,51.9c-1.8,0-3.2,1.4-3.2,3.2s1.4,3.2,3.2,3.2c1.8,0,3.2-1.4,3.2-3.2S299.2,51.9,297.4,51.9z"/>
			</g>
			<g id="XMLID_76_">
				<path id="XMLID_72_" class="st3" d="M309.5,154.1c-4.6,0-8.3-3.7-8.3-8.3c0-4.6,3.7-8.3,8.3-8.3c4.6,0,8.3,3.7,8.3,8.3
					C317.8,150.4,314.1,154.1,309.5,154.1z M309.5,142.6c-1.8,0-3.2,1.4-3.2,3.2c0,1.8,1.4,3.2,3.2,3.2c1.8,0,3.2-1.4,3.2-3.2
					C312.7,144,311.3,142.6,309.5,142.6z"/>
			</g>
			<g id="XMLID_68_">
				<path id="XMLID_55_" class="st3" d="M275.1,182.5c-4.6,0-8.3-3.7-8.3-8.3c0-4.6,3.7-8.3,8.3-8.3c4.6,0,8.3,3.7,8.3,8.3
					C283.4,178.8,279.7,182.5,275.1,182.5z M275.1,171c-1.8,0-3.2,1.4-3.2,3.2c0,1.8,1.4,3.2,3.2,3.2c1.8,0,3.2-1.4,3.2-3.2
					C278.3,172.5,276.9,171,275.1,171z"/>
			</g>
			<g id="XMLID_63_">
				<path id="XMLID_102_" d="M229.5,134.3c-6,0-11-4.9-11-11c0-6,4.9-11,11-11s11,4.9,11,11C240.5,129.4,235.6,134.3,229.5,134.3z"
					/>
				<g id="XMLID_91_">
					<path id="XMLID_92_" class="st1" d="M229.5,114.5c4.9,0,8.8,4,8.8,8.8c0,4.9-4,8.8-8.8,8.8s-8.8-4-8.8-8.8
						C220.7,118.5,224.6,114.5,229.5,114.5 M229.5,110.3c-7.2,0-13.1,5.9-13.1,13.1c0,7.2,5.9,13.1,13.1,13.1s13.1-5.9,13.1-13.1
						C242.6,116.1,236.7,110.3,229.5,110.3L229.5,110.3z"/>
				</g>
			</g>
			<polygon id="XMLID_103_" class="st0" points="224.1,107 229.5,123.4 235.1,107.2 			"/>
			<g id="XMLID_106_">
				<path id="XMLID_108_" class="st3" d="M234.6,82v17.8h-10.2v-18c-4.5,1.9-7.7,6.4-7.7,11.7c0,7,5.7,9.8,12.6,9.8
					c7,0,12.6-2.8,12.6-9.8C241.9,88.4,238.9,84,234.6,82z"/>
			</g>
		</g>
	</g>
	<g id="XMLID_128_">
		<path id="XMLID_129_" d="M13.1,311.7c2.1,0,4.1,0.3,6.2,0.9c2.1,0.6,3.9,1.3,5.4,2.3l-3.2,6.7c-1.5-0.8-3.1-1.5-4.9-2.2
			c-1.8-0.6-3.2-1-4.3-1c-1.1,0-1.6,0.4-1.6,1.1c0,0.5,0.3,0.9,1,1.3s1.5,0.7,2.5,0.9c1,0.2,2.1,0.5,3.3,0.9s2.3,0.9,3.3,1.4
			c1,0.5,1.9,1.3,2.5,2.5c0.7,1.1,1,2.4,1,3.9c0,2.8-1.1,4.9-3.2,6.4c-2.1,1.4-4.8,2.2-8,2.2c-2.4,0-4.7-0.4-7.1-1.1
			c-2.4-0.7-4.5-1.8-6.2-3.1l3.3-6.6c1.3,1.1,3,2.1,5.1,2.9c2,0.8,3.7,1.2,5.1,1.2c1.4,0,2.1-0.5,2.1-1.4c0-0.5-0.3-1-1-1.3
			c-0.7-0.4-1.5-0.6-2.5-0.8c-1-0.2-2.1-0.5-3.3-0.9c-1.2-0.4-2.3-0.8-3.3-1.3c-1-0.5-1.9-1.3-2.5-2.3c-0.7-1.1-1-2.3-1-3.8
			c0-2.7,1-4.8,3.1-6.3C6.9,312.5,9.7,311.7,13.1,311.7z"/>
		<path id="XMLID_131_" d="M49.2,319h-7.6v19.7h-8.8V319h-7.6v-7h24V319z"/>
		<path id="XMLID_133_" d="M53,315.6c2.8-2.5,6.3-3.8,10.5-3.8c4.2,0,7.7,1.3,10.5,3.8c2.8,2.6,4.1,5.8,4.1,9.7c0,4-1.4,7.2-4.1,9.8
			c-2.8,2.6-6.3,3.9-10.5,3.9c-4.2,0-7.7-1.3-10.5-3.9c-2.8-2.6-4.1-5.9-4.1-9.8C48.9,321.4,50.2,318.2,53,315.6z M63.6,319.2
			c-1.6,0-2.9,0.6-4,1.8c-1.1,1.2-1.7,2.7-1.7,4.5s0.6,3.3,1.7,4.5c1.1,1.2,2.5,1.8,4,1.8c1.5,0,2.8-0.6,3.9-1.8
			c1.1-1.2,1.6-2.7,1.6-4.5s-0.5-3.3-1.6-4.5C66.5,319.7,65.2,319.2,63.6,319.2z"/>
		<path id="XMLID_136_" d="M80.7,312.1h12.5c3.5,0,6.2,0.8,8.1,2.5c1.9,1.7,2.8,4,2.8,7c0,3.2-0.9,5.7-2.8,7.5s-4.6,2.7-8.1,2.7
			h-3.7v6.9h-8.8V312.1z M89.5,318.8v6.3h3.2c1,0,1.7-0.3,2.2-0.9c0.5-0.6,0.8-1.4,0.8-2.4c0-1-0.3-1.8-0.8-2.3
			c-0.5-0.5-1.3-0.8-2.2-0.8H89.5z"/>
		<path id="XMLID_139_" d="M137.1,319h-7.6v19.7h-8.8V319h-7.6v-7h24V319z"/>
		<path id="XMLID_141_" d="M165.1,338.7h-8.8v-9.6h-8.2v9.6h-8.8v-26.6h8.8v10.3h8.2v-10.3h8.8V338.7z"/>
		<path id="XMLID_143_" d="M191.6,318.8h-13.7v3.3h12.5v6.7h-12.5v3.3h14.1v6.7H169v-26.6h22.5V318.8z"/>
		<path id="XMLID_145_" d="M216.4,311.8c2,0,4.1,0.4,6.1,1.3c2.1,0.9,3.8,2.1,5.1,3.5l-5.1,6c-0.8-1.1-1.7-2-2.8-2.6
			c-1.1-0.6-2.2-1-3.2-1c-1.6,0-2.9,0.6-4,1.7c-1,1.1-1.6,2.6-1.6,4.4c0,1.8,0.5,3.2,1.6,4.4c1,1.2,2.4,1.7,4,1.7c1,0,2-0.3,3.1-0.8
			c1.1-0.5,2.1-1.3,2.9-2.2l5.1,5.4c-1.5,1.6-3.3,2.9-5.4,3.9c-2.1,1-4.2,1.4-6.2,1.4c-4.1,0-7.4-1.3-10.1-3.9c-2.7-2.6-4-5.9-4-9.9
			c0-3.9,1.4-7.2,4.1-9.7C208.8,313.1,212.3,311.8,216.4,311.8z"/>
		<path id="XMLID_147_" d="M255.4,338.7h-8.8v-9.6h-8.2v9.6h-8.8v-26.6h8.8v10.3h8.2v-10.3h8.8V338.7z"/>
		<path id="XMLID_149_" d="M277.4,335h-10l-1.4,3.8h-9l11.2-26.6h9l10.8,26.6h-9.4L277.4,335z M275.3,328.7l-2.7-7.8l-2.8,7.8H275.3
			z"/>
		<path id="XMLID_152_" d="M315.6,338.7h-7.4l-10.5-13.6v13.6h-8v-26.6h7.4l10.5,13.7v-13.7h8V338.7z"/>
		<path id="XMLID_154_" d="M336.7,324.7h7.6v11c-1.5,1-3.3,1.8-5.5,2.5c-2.2,0.6-4.2,1-6.1,1c-4.2,0-7.6-1.3-10.4-3.9
			c-2.7-2.6-4.1-5.9-4.1-9.8c0-3.9,1.4-7.2,4.2-9.7c2.8-2.6,6.4-3.9,10.8-3.9c2.1,0,4.2,0.4,6.3,1.1c2.1,0.7,3.8,1.7,5.3,3l-5,6
			c-0.9-0.9-1.9-1.5-3.1-2.1c-1.2-0.5-2.3-0.8-3.5-0.8c-1.7,0-3.1,0.6-4.2,1.8c-1.1,1.2-1.7,2.7-1.7,4.5c0,1.8,0.6,3.4,1.7,4.6
			c1.1,1.2,2.6,1.8,4.3,1.8c0.9,0,2.1-0.3,3.5-0.9V324.7z"/>
		<path id="XMLID_156_" d="M370.2,318.8h-13.7v3.3h12.5v6.7h-12.5v3.3h14.1v6.7h-22.9v-26.6h22.5V318.8z"/>
		<path id="XMLID_158_" d="M385.5,311.7c2.1,0,4.1,0.3,6.2,0.9c2.1,0.6,3.9,1.3,5.4,2.3l-3.2,6.7c-1.5-0.8-3.1-1.5-4.9-2.2
			c-1.8-0.6-3.2-1-4.3-1c-1.1,0-1.6,0.4-1.6,1.1c0,0.5,0.3,0.9,1,1.3s1.5,0.7,2.5,0.9c1,0.2,2.1,0.5,3.3,0.9s2.3,0.9,3.3,1.4
			c1,0.5,1.9,1.3,2.5,2.5c0.7,1.1,1,2.4,1,3.9c0,2.8-1.1,4.9-3.2,6.4c-2.1,1.4-4.8,2.2-8,2.2c-2.4,0-4.7-0.4-7.1-1.1
			c-2.4-0.7-4.5-1.8-6.2-3.1l3.3-6.6c1.3,1.1,3,2.1,5.1,2.9c2,0.8,3.7,1.2,5.1,1.2c1.4,0,2.1-0.5,2.1-1.4c0-0.5-0.3-1-1-1.3
			c-0.7-0.4-1.5-0.6-2.5-0.8c-1-0.2-2.1-0.5-3.3-0.9c-1.2-0.4-2.3-0.8-3.3-1.3c-1-0.5-1.9-1.3-2.5-2.3c-0.7-1.1-1-2.3-1-3.8
			c0-2.7,1-4.8,3.1-6.3C379.2,312.5,382,311.7,385.5,311.7z"/>
		<path id="XMLID_160_" d="M429.5,319h-7.6v19.7h-8.8V319h-7.6v-7h24V319z"/>
		<path id="XMLID_162_" d="M433.3,315.6c2.8-2.5,6.3-3.8,10.5-3.8c4.2,0,7.7,1.3,10.5,3.8c2.8,2.6,4.1,5.8,4.1,9.7
			c0,4-1.4,7.2-4.1,9.8c-2.8,2.6-6.3,3.9-10.5,3.9c-4.2,0-7.7-1.3-10.5-3.9c-2.8-2.6-4.1-5.9-4.1-9.8
			C429.2,321.4,430.6,318.2,433.3,315.6z M443.9,319.2c-1.6,0-2.9,0.6-4,1.8c-1.1,1.2-1.7,2.7-1.7,4.5s0.6,3.3,1.7,4.5
			c1.1,1.2,2.5,1.8,4,1.8c1.5,0,2.8-0.6,3.9-1.8c1.1-1.2,1.6-2.7,1.6-4.5s-0.5-3.3-1.6-4.5C446.8,319.7,445.5,319.2,443.9,319.2z"/>
	</g>
	<g id="XMLID_1_">
		<path id="XMLID_2_" d="M47.2,431.5l-9.7-21.1H27.4v21.1H0.5v-81.3h39.3c11.1,0,19.6,2.5,25.6,7.6c6,5.1,9,12.2,9,21.5
			c0,11.9-4.3,20.5-12.9,25.8l16,26.4H47.2z M27.4,390h12.4c2.9,0,5.2-0.9,6.8-2.6c1.6-1.7,2.4-4.2,2.4-7.2c0-3-0.8-5.4-2.4-7
			c-1.6-1.7-3.8-2.5-6.8-2.5H27.4V390z"/>
		<path id="XMLID_56_" d="M161.7,350.2v46.9c0,10.8-3.5,19.5-10.6,25.9c-7,6.5-16.4,9.7-28.2,9.7c-11.8,0-21.3-3.2-28.5-9.7
			c-7.2-6.5-10.8-15.1-10.8-25.9v-46.9h26.9v46.9c0,3.9,1.2,7,3.7,9.5c2.4,2.5,5.4,3.7,8.9,3.7c3.4,0,6.2-1.2,8.4-3.6
			c2.2-2.4,3.3-5.6,3.3-9.6v-46.9H161.7z"/>
		<path id="XMLID_65_" d="M199.3,409.1h33.9v22.4h-60.8v-81.3h26.9V409.1z"/>
		<path id="XMLID_67_" d="M309.2,370.6h-41.9v10h38V401h-38v10.1h42.9v20.4h-69.8v-81.3h68.8V370.6z"/>
		<path id="XMLID_70_" d="M369.5,396.6h11v-15.5h24.9v15.5h10.3v19.3h-10.3v15.7h-24.9v-15.7h-38.3v-17.6l23.8-48h25.6L369.5,396.6z
			"/>
		<path id="XMLID_126_" d="M457.9,431.5H431v-60.1h-14.2v-21.2h41.1V431.5z"/>
	</g>
</g>
</svg>
