<svg xmlns="http://www.w3.org/2000/svg" viewBox="0 0 540 85.156" enable-background="new 0 0 540 85.156"><g fill="#010101"><path d="M15.675 73.365h16.37v-22.71h25.527v-14.795h-25.527v-9.075h26.853v-14.795h-43.223zM66.398 11.99h16.37v61.375h-16.37zM131.211 57.017c-2.567 1.25-5.746 1.884-9.469 1.884-4.032 0-7.413-1.445-10.335-4.418-2.93-2.979-4.355-6.881-4.355-11.93 0-5.039 1.487-8.963 4.547-11.998 3.063-3.039 6.733-4.516 11.221-4.516 2.312 0 4.485.393 6.457 1.166 1.989.782 4.232 2.255 6.668 4.379l1.45 1.264 8.674-12.53-1.135-1.013c-6.43-5.734-14.107-8.642-22.819-8.642-8.741 0-16.312 3.064-22.502 9.109-6.201 6.057-9.345 13.708-9.345 22.739 0 9.033 3.088 16.628 9.18 22.573 6.079 5.935 13.692 8.943 22.627 8.943 10.629 0 19.091-3.427 25.15-10.186l.439-.49v-22.933h-16.453v16.599zM191.715 36.191h-19.601v-24.201h-16.37v61.375h16.37v-22.793h19.601v22.793h16.37v-61.375h-16.37zM214.093 26.619h16.41v46.746h16.371v-46.746h16.411v-14.629h-49.192zM429.64 50.376c4.229-4.401 7.067-7.947 8.677-10.842 1.656-2.982 2.496-6.149 2.496-9.413 0-5.975-2.117-10.782-6.293-14.289-4.086-3.429-8.892-5.168-14.283-5.168-5.322 0-9.799 1.185-13.304 3.521-3.416 2.277-6.579 5.652-9.402 10.031l-.968 1.502 13.341 7.898.891-1.42c2.909-4.635 5.905-6.985 8.903-6.985 1.52 0 2.717.468 3.66 1.431.952.974 1.415 2.166 1.415 3.646 0 1.562-.633 3.249-1.88 5.016-1.407 1.99-3.815 4.721-7.162 8.121l-17.48 17.905v12.035h44.302v-15.044h-20.554l7.641-7.945zM446.156 26.454h11.024v46.911h15.874v-61.375h-26.898zM519.181 37.586c-4.334-3.62-9.557-5.456-15.524-5.456-1.48 0-2.873.107-4.164.32v-5.832h22.876v-14.628h-38.419v30.659l6.756 7.275 1.173-.637c3.596-1.952 6.749-2.941 9.374-2.941 2.529 0 4.591.593 6.127 1.762 1.411 1.075 2.098 2.593 2.098 4.64 0 2.054-.622 3.533-1.902 4.524-1.415 1.096-2.995 1.629-4.83 1.629-1.916 0-3.872-.531-5.816-1.578-2.599-1.396-3.743-2.208-4.248-2.645-.782-.676-1.42-1.261-1.897-1.738l-1.432-1.432-8.789 12.22.933 1.031c5.563 6.15 12.602 9.269 20.918 9.269 6.539 0 12.126-2.029 16.604-6.032 4.532-4.053 6.831-9.253 6.831-15.456-.001-6.224-2.245-11.255-6.669-14.954z"/></g><path d="M322.672 52.006c1.55.57 3.828 1.439 7.665 1.439 2.356 0 4.61-.401 6.726-1.113 3.924-1.595 6.609-5.073 10.492-11.445.609-1 1.039-1.762 1.227-2.054.542-.814.644-2.01-.199-2.71-.762-.631-1.646-.509-2.771.319-.228.173-.637.548-1.14 1.006-2.19 1.995-4.103 3.647-5.294 3.647-.448 0-.702-.22-.847-.401-.171-.235-.259-.555-.259-.966v-23.753c0-1.044-.852-1.897-1.901-1.897-1.051 0-1.896.853-1.896 1.897v15.038l-.008.092c-.049.549-.522.99-1.071.99-.509 0-.942-.363-1.04-.856l-.033-.177v-18.453c0-1.046-.855-1.896-1.907-1.896-1.042 0-1.894.85-1.894 1.896l.01 18.404-.02.153c-.045.503-.5.929-1.059.929-.506 0-.929-.346-1.038-.828l-.049-.206v-15.403c0-1.045-.854-1.899-1.898-1.899s-1.9.854-1.9 1.899v15.403c-.008.42-.312 1.034-1.092 1.034-.552 0-1.002-.43-1.053-.992v-9.488c0-1.052-.854-1.904-1.906-1.904-1.049 0-1.898.853-1.898 1.904l-.008 21.349c.094 6.982 5.994 8.997 6.061 9.042z" fill="#010101"/><path d="M390.474 37.235c.028-.579-.218-1.14-.897-2.062-4.432-5.311-17.832-19.733-37.419-26.281-.267-.073-.589-.196-.667-.07 0 0-.143.132.266.542 6.157 5.748 10.014 13.929 10.014 23.017 0 16.806-13.163 30.531-29.743 31.438-.114.006-1.275.05-1.744.05-.477 0-1.595-.041-1.681-.046v.002c-16.608-.876-29.804-14.617-29.804-31.444 0-9.088 3.855-17.269 10.013-23.017.408-.41.265-.542.265-.542-.077-.126-.399-.003-.667.07-19.585 6.548-32.986 20.971-37.418 26.281-.68.922-.923 1.483-.9 2.062 0 0 .015.98.81 2.062 1.021 1.399 2.037 2.745 3.053 4.045l.039.052h.002c23.008 27.087 44.457 31.425 55.419 31.542h.869c.188.004 2.252-.035 2.464-.046h.001c11.376-.522 31.929-5.679 53.894-31.576l-.002-.004c1.006-1.29 2.018-2.626 3.027-4.013.795-1.082.806-2.062.806-2.062z" fill="#fff"/></svg>