<?xml version="1.0" encoding="iso-8859-1"?>
<!-- Generator: Adobe Illustrator 18.1.0, SVG Export Plug-In . SVG Version: 6.00 Build 0)  -->
<svg version="1.1" id="Layer_1" xmlns="http://www.w3.org/2000/svg" xmlns:xlink="http://www.w3.org/1999/xlink" x="0px" y="0px"
	 viewBox="0 0 432 220.779" style="enable-background:new 0 0 432 220.779;" xml:space="preserve">
<g>
	<polygon points="15.614,212.691 31.984,212.691 31.984,189.982 57.511,189.982 57.511,175.185 31.984,175.185 31.984,166.111 
		58.837,166.111 58.837,151.315 15.614,151.315 	"/>
	<rect x="66.337" y="151.315" width="16.37" height="61.376"/>
	<path d="M131.15,196.343c-2.567,1.25-5.746,1.883-9.469,1.883c-4.033,0-7.414-1.444-10.335-4.417
		c-2.93-2.98-4.355-6.883-4.355-11.931c0-5.038,1.487-8.963,4.547-11.997c3.062-3.04,6.733-4.517,11.22-4.517
		c2.311,0,4.483,0.393,6.457,1.166c1.989,0.781,4.232,2.255,6.668,4.379l1.45,1.265l8.674-12.53l-1.135-1.013
		c-6.429-5.734-14.106-8.643-22.819-8.643c-8.741,0-16.312,3.065-22.502,9.11c-6.201,6.056-9.345,13.706-9.345,22.738
		c0,9.033,3.088,16.628,9.18,22.573c6.078,5.934,13.691,8.943,22.627,8.943c10.629,0,19.091-3.428,25.15-10.187l0.439-0.49v-22.934
		H131.15V196.343z"/>
	<polygon points="191.654,175.517 172.053,175.517 172.053,151.315 155.683,151.315 155.683,212.691 172.053,212.691 
		172.053,189.898 191.654,189.898 191.654,212.691 208.024,212.691 208.024,151.315 191.654,151.315 	"/>
	<polygon points="214.032,165.945 230.442,165.945 230.442,212.691 246.813,212.691 246.813,165.945 263.223,165.945 
		263.223,151.315 214.032,151.315 	"/>
	<path d="M320.178,189.702c4.228-4.398,7.066-7.944,8.677-10.842c1.656-2.982,2.496-6.149,2.496-9.413
		c0-5.975-2.117-10.782-6.292-14.289c-4.087-3.43-8.893-5.169-14.284-5.169c-5.323,0-9.8,1.186-13.304,3.521
		c-3.416,2.277-6.579,5.652-9.402,10.031l-0.968,1.503l13.341,7.896l0.891-1.419c2.909-4.636,5.905-6.985,8.903-6.985
		c1.52,0,2.717,0.468,3.66,1.43c0.952,0.974,1.415,2.167,1.415,3.646c0,1.561-0.633,3.248-1.881,5.015
		c-1.407,1.991-3.815,4.723-7.161,8.121l-17.479,17.907v12.035h44.302v-15.045h-20.554L320.178,189.702z"/>
	<polygon points="336.694,165.78 347.717,165.78 347.717,212.691 363.591,212.691 363.591,151.315 336.694,151.315 	"/>
	<path d="M409.718,176.911c-4.334-3.62-9.558-5.456-15.524-5.456c-1.479,0-2.872,0.107-4.164,0.32v-5.831h22.876v-14.63h-38.418
		v30.659l6.756,7.274l1.173-0.637c3.597-1.951,6.75-2.94,9.374-2.94c2.528,0,4.59,0.593,6.127,1.762
		c1.411,1.075,2.098,2.593,2.098,4.641c0,2.054-0.622,3.533-1.902,4.523c-1.415,1.097-2.995,1.629-4.83,1.629
		c-1.915,0-3.872-0.53-5.816-1.576c-2.599-1.396-3.743-2.208-4.246-2.644c-0.799-0.692-1.438-1.278-1.898-1.739l-1.432-1.435
		l-8.79,12.223l0.933,1.03c5.563,6.15,12.602,9.269,20.918,9.269c6.54,0,12.127-2.03,16.604-6.033
		c4.532-4.053,6.831-9.252,6.831-15.455C416.386,185.641,414.143,180.611,409.718,176.911z"/>
</g>
<g>
	<g>
		<g>
			<path d="M203.16,87.884c2.614,0.961,6.457,2.427,12.932,2.427c3.976,0,7.778-0.677,11.347-1.878
				c6.621-2.69,11.151-8.559,17.703-19.309c1.028-1.688,1.752-2.974,2.068-3.465c0.914-1.374,1.087-3.391-0.336-4.574
				c-1.285-1.065-2.778-0.858-4.675,0.538c-0.385,0.293-1.074,0.926-1.921,1.698c-3.696,3.366-6.923,6.153-8.933,6.153
				c-0.756,0-1.185-0.371-1.428-0.677c-0.29-0.396-0.438-0.936-0.438-1.63V27.094c0-1.762-1.438-3.2-3.208-3.2
				c-1.771,0-3.201,1.439-3.201,3.2v25.371c0,0.055,0,0.105-0.012,0.156c-0.082,0.927-0.88,1.67-1.808,1.67
				c-0.859,0-1.591-0.614-1.753-1.445c-0.038-0.092-0.057-0.193-0.057-0.299V21.415c0-1.765-1.443-3.199-3.218-3.199
				c-1.758,0-3.195,1.434-3.195,3.199l0.017,31.05c0,0.082-0.017,0.187-0.033,0.259c-0.075,0.849-0.844,1.567-1.787,1.567
				c-0.854,0-1.568-0.584-1.751-1.397c-0.051-0.107-0.085-0.224-0.085-0.347V26.558c0-1.762-1.441-3.203-3.203-3.203
				c-1.761,0-3.206,1.44-3.206,3.203v25.988c-0.012,0.708-0.528,1.744-1.841,1.744c-0.931,0-1.69-0.725-1.777-1.674V36.608
				c0-1.775-1.44-3.213-3.215-3.213c-1.77,0-3.204,1.438-3.204,3.213l-0.014,36.019C193.094,84.408,203.049,87.806,203.16,87.884z"
				/>
		</g>
		<path style="fill:#FFFFFF;" d="M317.551,62.962c0.046-0.976-0.369-1.923-1.514-3.479c-7.477-8.959-30.085-33.291-63.132-44.339
			c-0.45-0.124-0.993-0.331-1.126-0.119c0,0-0.239,0.222,0.45,0.914c10.387,9.697,16.893,23.501,16.893,38.833
			c0,28.354-22.208,51.509-50.181,53.041c-0.193,0.009-2.151,0.083-2.942,0.083c-0.804,0-2.69-0.069-2.836-0.077v0.003
			c-28.021-1.479-50.282-24.66-50.282-53.05c0-15.332,6.504-29.136,16.893-38.833c0.689-0.692,0.446-0.914,0.446-0.914
			c-0.131-0.212-0.675-0.005-1.124,0.119c-33.044,11.048-55.653,35.38-63.13,44.339c-1.146,1.557-1.557,2.503-1.518,3.479
			c0,0,0.025,1.654,1.367,3.478c1.722,2.359,3.437,4.631,5.149,6.824c0,0,0.057,0.076,0.067,0.088l0.002-0.001
			c38.818,45.699,75.007,53.016,93.5,53.215c0.086,0,1.078,0.008,1.467,0c0.318,0.008,3.799-0.06,4.155-0.077
			c0.003,0,0.003,0,0.003,0c19.192-0.882,53.869-9.581,90.926-53.273l-0.003-0.006c1.697-2.177,3.402-4.431,5.108-6.771
			C317.533,64.617,317.551,62.962,317.551,62.962z"/>
	</g>
</g>
</svg>
