<?xml version="1.0" encoding="utf-8"?>
<!-- Generator: Adobe Illustrator 19.0.0, SVG Export Plug-In . SVG Version: 6.00 Build 0)  -->
<svg version="1.1" id="Layer_1" xmlns="http://www.w3.org/2000/svg" xmlns:xlink="http://www.w3.org/1999/xlink" x="0px" y="0px"
	 viewBox="-382 180.3 457.9 432.7" style="enable-background:new -382 180.3 457.9 432.7;" xml:space="preserve">
<style type="text/css">
	.st0{fill:#FFFFFF;}
	.st1{fill:#8AEB00;}
	.st2{fill:#017E00;}
</style>
<g id="Layer_1_1_">
</g>
<g id="Layer_3">
	<g id="XMLID_79_">
		<g id="XMLID_93_">
			<g id="XMLID_95_">
				<path id="XMLID_89_" d="M3.4,384.9c0,8.7-7,15.7-15.7,15.7h-274.7c-8.7,0-15.7-7-15.7-15.7v-189c0-8.6,7-15.6,15.7-15.6h274.8
					c8.7,0,15.7,7,15.7,15.7L3.4,384.9L3.4,384.9L3.4,384.9z"/>
			</g>
			<g id="XMLID_94_">
				<path id="XMLID_90_" class="st0" d="M-280,376.2c-2.9,0-5.2-2.3-5.2-5.2V210c0-2.9,2.3-5.2,5.2-5.2h260.7c2.9,0,5.2,2.3,5.2,5.2
					v161c0,2.9-2.3,5.2-5.2,5.2H-280z"/>
				<path id="XMLID_80_" class="st1" d="M-19.3,207.5c1.4,0,2.5,1.1,2.5,2.5v161c0,1.4-1.1,2.5-2.5,2.5h-260.7
					c-1.4,0-2.5-1.1-2.5-2.5V210c0-1.4,1.1-2.5,2.5-2.5H-19.3 M-19.3,202.2h-260.7c-4.3,0-7.8,3.5-7.8,7.8v161
					c0,4.3,3.5,7.8,7.8,7.8h260.7c4.3,0,7.8-3.5,7.8-7.8V210C-11.4,205.7-14.9,202.2-19.3,202.2L-19.3,202.2z"/>
			</g>
		</g>
		<g id="XMLID_3_">
			<path id="XMLID_6_" class="st2" d="M13.6,473.9L13.6,473.9c-3,0-322.3,0-325.3,0c-6.2,0-14.9-1.4-21.4-7.9l0,0v-7.7l0,0
				l34.4-42.9H0.7v0.1l34.4,42.9v7.6l0,0C28.5,472.5,19.8,473.9,13.6,473.9z"/>
			<path id="XMLID_46_" d="M18.6,465.8L18.6,465.8c-3.1,0-332.2,0-335.3,0c-6.4,0-15.3-1.4-22.1-8.2l0,0v-7.9l0,0l35.5-44.2H5.3v0.1
				l35.4,44.2v7.9l0,0C34,464.4,25,465.8,18.6,465.8z"/>
			<g id="XMLID_4_">
				<polygon id="XMLID_45_" class="st0" points="-116,415.2 -116.6,411 -133.1,411 -133,415.2 				"/>
				<polygon id="XMLID_44_" class="st0" points="-254.6,411 -271.1,411 -273.9,415.2 -256.9,415.2 				"/>
				<polygon id="XMLID_43_" class="st0" points="-232.3,411 -248.7,411 -251,415.2 -234.1,415.2 				"/>
				<polygon id="XMLID_42_" class="st0" points="-43.9,415.2 -46.2,411 -62.6,411 -60.8,415.2 				"/>
				<polygon id="XMLID_41_" class="st0" points="-280.1,415.2 -277.4,411 -291,411 -294.5,415.2 				"/>
				<polygon id="XMLID_40_" class="st0" points="-208.8,411 -226.7,411 -228.5,415.2 -210,415.2 				"/>
				<polygon id="XMLID_39_" class="st0" points="-17.6,411 -14.8,415.2 -2.4,415.2 -5.6,411 				"/>
				<polygon id="XMLID_38_" class="st0" points="-66.4,415.2 -68.2,411 -86.1,411 -84.9,415.2 				"/>
				<polygon id="XMLID_37_" class="st0" points="-21,415.2 -23.8,411 -40.3,411 -38.1,415.2 				"/>
				<polygon id="XMLID_36_" class="st0" points="-91.5,411 -111.4,411 -110.7,415.2 -90.3,415.2 				"/>
				<polygon id="XMLID_35_" class="st0" points="-138.2,411 -156.7,411 -156.7,415.2 -138.2,415.2 				"/>
				<polygon id="XMLID_34_" class="st0" points="-204.6,415.2 -184.1,415.2 -183.5,411 -203.4,411 				"/>
				<polygon id="XMLID_33_" class="st0" points="-161.8,411 -178.3,411 -178.9,415.2 -161.9,415.2 				"/>
				<polygon id="XMLID_32_" class="st0" points="-162,417.4 -179.3,417.4 -180.1,423.3 -162.1,423.3 				"/>
				<polygon id="XMLID_31_" class="st0" points="-138.1,417.4 -156.8,417.4 -156.9,423.3 -138,423.3 				"/>
				<polygon id="XMLID_30_" class="st0" points="-261.2,423.3 -258.1,417.4 -275.4,417.4 -279.2,423.3 				"/>
				<polygon id="XMLID_29_" class="st0" points="-285.5,423.3 -281.6,417.4 -296.4,417.4 -301.4,423.3 				"/>
				<polygon id="XMLID_28_" class="st0" points="-13.3,417.4 -9.4,423.3 3.7,423.3 -0.7,417.4 				"/>
				<polygon id="XMLID_27_" class="st0" points="-252.2,417.4 -255.3,423.3 -237.4,423.3 -235,417.4 				"/>
				<polygon id="XMLID_26_" class="st0" points="-132.8,423.3 -114.8,423.3 -115.6,417.4 -132.9,417.4 				"/>
				<polygon id="XMLID_25_" class="st0" points="-33.7,423.3 -15.6,423.3 -19.5,417.4 -36.8,417.4 				"/>
				<polygon id="XMLID_24_" class="st0" points="-65.5,417.4 -84.3,417.4 -82.7,423.3 -63.1,423.3 				"/>
				<polygon id="XMLID_23_" class="st0" points="-42.7,417.4 -59.9,417.4 -57.5,423.3 -39.6,423.3 				"/>
				<polygon id="XMLID_22_" class="st0" points="-206.9,423.3 -185.3,423.3 -184.5,417.4 -205.2,417.4 				"/>
				<polygon id="XMLID_21_" class="st0" points="-231.8,423.3 -212.2,423.3 -210.6,417.4 -229.4,417.4 				"/>
				<polygon id="XMLID_20_" class="st0" points="-89.7,417.4 -110.4,417.4 -109.5,423.3 -88,423.3 				"/>
				<polygon id="XMLID_19_" class="st0" points="-32.1,426.3 -27.4,435.1 -7.8,435.1 -13.6,426.3 				"/>
				<polygon id="XMLID_18_" class="st0" points="-287.1,435.1 -267.5,435.1 -262.9,426.3 -281.4,426.3 				"/>
				<polygon id="XMLID_17_" class="st0" points="-311.2,435.1 -293.4,435.1 -287.5,426.3 -303.9,426.3 				"/>
				<polygon id="XMLID_16_" class="st0" points="-236.7,435.1 -215.6,435.1 -213.1,426.3 -233.1,426.3 				"/>
				<polygon id="XMLID_15_" class="st0" points="-7.4,426.3 -1.6,435.1 12.7,435.1 6.1,426.3 				"/>
				<polygon id="XMLID_14_" class="st0" points="-261.8,435.1 -242.3,435.1 -238.7,426.3 -257,426.3 				"/>
				<polygon id="XMLID_12_" class="st0" points="-132.6,435.1 -113,435.1 -114.3,426.3 -132.8,426.3 				"/>
				<polygon id="XMLID_11_" class="st0" points="-210.2,435.1 -187.1,435.1 -185.8,426.3 -207.7,426.3 				"/>
				<polygon id="XMLID_10_" class="st0" points="-109.1,426.3 -107.8,435.1 -84.7,435.1 -87.2,426.3 				"/>
				<polygon id="XMLID_9_" class="st0" points="-162.1,426.3 -180.6,426.3 -181.9,435.1 -162.3,435.1 				"/>
				<polygon id="XMLID_8_" class="st0" points="-137.9,426.3 -157,426.3 -157.1,435.1 -137.8,435.1 				"/>
				<polygon id="XMLID_7_" class="st0" points="-81.8,426.3 -79.3,435.1 -58.2,435.1 -61.8,426.3 				"/>
				<polygon id="XMLID_5_" class="st0" points="-56.2,426.3 -52.6,435.1 -33.2,435.1 -37.9,426.3 				"/>
				<polygon id="XMLID_50_" class="st0" points="-182.7,440 -183.5,445.9 -111.4,445.9 -112.2,440 				"/>
			</g>
		</g>
		<g id="XMLID_51_">
			<path id="XMLID_57_" class="st2" d="M-152.7,333.7c-16.6,0-30.2-13.5-30.2-30.2s13.5-30.2,30.2-30.2s30.2,13.5,30.2,30.2
				S-136.1,333.7-152.7,333.7z M-152.7,284.8c-10.4,0-18.8,8.4-18.8,18.8s8.4,18.8,18.8,18.8s18.8-8.4,18.8-18.8
				C-133.9,293.2-142.4,284.8-152.7,284.8z"/>
			<path id="XMLID_60_" class="st2" d="M-168,285.4c-1,0-1.9-0.4-2.5-1.3l-20-28l9.2-24.6c0.6-1.6,2.4-2.4,4-1.8s2.4,2.4,1.8,4
				l-8,21.5l18.1,25.4c1,1.4,0.7,3.3-0.7,4.3C-166.7,285.3-167.4,285.4-168,285.4z"/>
			<path id="XMLID_62_" class="st2" d="M-170.7,288.5c-0.4,0-0.8-0.1-1.2-0.3l-27.9-12.1l-20.8-33.7c-0.9-1.4-0.4-3.3,1-4.2
				s3.3-0.4,4.2,1l19.8,32l26.1,11.3c1.6,0.7,2.3,2.5,1.6,4C-168.4,287.8-169.5,288.5-170.7,288.5z"/>
			<path id="XMLID_61_" class="st2" d="M-229.1,324.1c-0.7,0-1.4-0.2-2-0.7c-1.3-1.1-1.5-3-0.4-4.3l26.1-30.8l30.2-1
				c1.7-0.1,3.1,1.3,3.2,3c0.1,1.7-1.3,3.1-3,3.2l-27.5,0.9l-24.3,28.7C-227.3,323.8-228.2,324.1-229.1,324.1z"/>
			<path id="XMLID_123_" class="st2" d="M-198.7,351.8c-1.7,0-3.1-1.4-3.1-3.1v-37.8l22-11c1.5-0.8,3.4-0.1,4.1,1.4
				c0.8,1.5,0.1,3.4-1.4,4.1l-18.6,9.3v34C-195.6,350.4-197,351.8-198.7,351.8z"/>
			<g id="XMLID_122_">
				<path id="XMLID_119_" class="st2" d="M-176.4,234.6c-4.6,0-8.3-3.7-8.3-8.3s3.7-8.3,8.3-8.3s8.3,3.7,8.3,8.3
					S-171.8,234.6-176.4,234.6z M-176.4,223.1c-1.8,0-3.2,1.4-3.2,3.2s1.4,3.2,3.2,3.2s3.2-1.4,3.2-3.2
					C-173.1,224.5-174.6,223.1-176.4,223.1z"/>
			</g>
			<g id="XMLID_118_">
				<path id="XMLID_115_" class="st2" d="M-221,243.7c-4.6,0-8.3-3.7-8.3-8.3s3.7-8.3,8.3-8.3s8.3,3.7,8.3,8.3
					C-212.7,240-216.4,243.7-221,243.7z M-221,232.2c-1.8,0-3.2,1.4-3.2,3.2s1.4,3.2,3.2,3.2s3.2-1.4,3.2-3.2
					C-217.8,233.6-219.2,232.2-221,232.2z"/>
			</g>
			<g id="XMLID_114_">
				<path id="XMLID_111_" class="st2" d="M-233.1,334.4c-4.6,0-8.3-3.7-8.3-8.3c0-4.6,3.7-8.3,8.3-8.3s8.3,3.7,8.3,8.3
					C-224.8,330.7-228.5,334.4-233.1,334.4z M-233.1,322.9c-1.8,0-3.2,1.4-3.2,3.2c0,1.8,1.4,3.2,3.2,3.2s3.2-1.4,3.2-3.2
					C-229.8,324.3-231.3,322.9-233.1,322.9z"/>
			</g>
			<g id="XMLID_110_">
				<path id="XMLID_101_" class="st2" d="M-198.7,362.8c-4.6,0-8.3-3.7-8.3-8.3c0-4.6,3.7-8.3,8.3-8.3s8.3,3.7,8.3,8.3
					C-190.4,359.1-194.1,362.8-198.7,362.8z M-198.7,351.3c-1.8,0-3.2,1.4-3.2,3.2c0,1.8,1.4,3.2,3.2,3.2s3.2-1.4,3.2-3.2
					C-195.5,352.8-196.9,351.3-198.7,351.3z"/>
			</g>
			<path id="XMLID_99_" class="st2" d="M-137.7,285.4c-0.6,0-1.2-0.2-1.8-0.6c-1.4-1-1.7-2.9-0.7-4.3l18.1-25.3l-8-21.5
				c-0.6-1.6,0.2-3.4,1.8-4c1.6-0.6,3.4,0.2,4,1.8l9.2,24.6l-20,28C-135.8,285-136.8,285.4-137.7,285.4z"/>
			<path id="XMLID_98_" class="st2" d="M-134.9,288.5c-1.2,0-2.3-0.7-2.8-1.9c-0.7-1.6,0-3.4,1.6-4l26.1-11.3l19.8-32
				c0.9-1.4,2.8-1.9,4.2-1s1.9,2.8,1,4.2l-20.8,33.7l-27.9,12.1C-134.1,288.4-134.5,288.5-134.9,288.5z"/>
			<path id="XMLID_96_" class="st2" d="M-76.6,324.1c-0.9,0-1.7-0.4-2.3-1.1l-24.3-28.7l-27.5-0.9c-1.7-0.1-3-1.5-3-3.2s1.5-3,3.2-3
				l30.2,1l26.1,30.8c1.1,1.3,0.9,3.2-0.4,4.3C-75.2,323.9-75.9,324.1-76.6,324.1z"/>
			<path id="XMLID_105_" class="st2" d="M-107,351.8c-1.7,0-3.1-1.4-3.1-3.1v-34l-18.6-9.3c-1.5-0.8-2.1-2.6-1.4-4.1
				c0.8-1.5,2.6-2.1,4.1-1.4l22,11v37.8C-103.9,350.4-105.3,351.8-107,351.8z"/>
			<g id="XMLID_104_">
				<path id="XMLID_84_" class="st2" d="M-129.3,234.6c-4.6,0-8.3-3.7-8.3-8.3s3.7-8.3,8.3-8.3c4.6,0,8.3,3.7,8.3,8.3
					S-124.7,234.6-129.3,234.6z M-129.3,223.1c-1.8,0-3.2,1.4-3.2,3.2s1.4,3.2,3.2,3.2s3.2-1.4,3.2-3.2S-127.5,223.1-129.3,223.1z"
					/>
			</g>
			<g id="XMLID_83_">
				<path id="XMLID_77_" class="st2" d="M-84.7,243.7c-4.6,0-8.3-3.7-8.3-8.3s3.7-8.3,8.3-8.3s8.3,3.7,8.3,8.3
					S-80.1,243.7-84.7,243.7z M-84.7,232.2c-1.8,0-3.2,1.4-3.2,3.2s1.4,3.2,3.2,3.2c1.8,0,3.2-1.4,3.2-3.2
					C-81.5,233.6-82.9,232.2-84.7,232.2z"/>
			</g>
			<g id="XMLID_76_">
				<path id="XMLID_72_" class="st2" d="M-72.6,334.4c-4.6,0-8.3-3.7-8.3-8.3c0-4.6,3.7-8.3,8.3-8.3c4.6,0,8.3,3.7,8.3,8.3
					C-64.3,330.7-68,334.4-72.6,334.4z M-72.6,322.9c-1.8,0-3.2,1.4-3.2,3.2c0,1.8,1.4,3.2,3.2,3.2s3.2-1.4,3.2-3.2
					S-70.8,322.9-72.6,322.9z"/>
			</g>
			<g id="XMLID_68_">
				<path id="XMLID_55_" class="st2" d="M-107,362.8c-4.6,0-8.3-3.7-8.3-8.3c0-4.6,3.7-8.3,8.3-8.3s8.3,3.7,8.3,8.3
					C-98.7,359.1-102.4,362.8-107,362.8z M-107,351.3c-1.8,0-3.2,1.4-3.2,3.2c0,1.8,1.4,3.2,3.2,3.2c1.8,0,3.2-1.4,3.2-3.2
					C-103.8,352.8-105.2,351.3-107,351.3z"/>
			</g>
			<g id="XMLID_63_">
				<path id="XMLID_102_" d="M-152.6,314.6c-6,0-11-4.9-11-11c0-6,4.9-11,11-11s11,4.9,11,11S-146.5,314.6-152.6,314.6z"/>
				<g id="XMLID_91_">
					<path id="XMLID_92_" class="st1" d="M-152.6,294.8c4.9,0,8.8,4,8.8,8.8c0,4.9-4,8.8-8.8,8.8s-8.8-4-8.8-8.8
						S-157.5,294.8-152.6,294.8 M-152.6,290.6c-7.2,0-13.1,5.9-13.1,13.1s5.9,13.1,13.1,13.1s13.1-5.9,13.1-13.1
						C-139.5,296.4-145.4,290.6-152.6,290.6L-152.6,290.6z"/>
				</g>
			</g>
			<polygon id="XMLID_103_" class="st0" points="-158,287.3 -152.6,303.7 -147,287.5 			"/>
			<g id="XMLID_106_">
				<path id="XMLID_108_" class="st2" d="M-147.5,262.3v17.8h-10.2v-18c-4.5,1.9-7.7,6.4-7.7,11.7c0,7,5.7,9.8,12.6,9.8
					c7,0,12.6-2.8,12.6-9.8C-140.2,268.7-143.2,264.3-147.5,262.3z"/>
			</g>
		</g>
	</g>
	<g id="XMLID_128_">
		<path id="XMLID_129_" d="M-369,492c2.1,0,4.1,0.3,6.2,0.9s3.9,1.3,5.4,2.3l-3.2,6.7c-1.5-0.8-3.1-1.5-4.9-2.2
			c-1.8-0.6-3.2-1-4.3-1c-1.1,0-1.6,0.4-1.6,1.1c0,0.5,0.3,0.9,1,1.3s1.5,0.7,2.5,0.9c1,0.2,2.1,0.5,3.3,0.9s2.3,0.9,3.3,1.4
			s1.9,1.3,2.5,2.5c0.7,1.1,1,2.4,1,3.9c0,2.8-1.1,4.9-3.2,6.4c-2.1,1.4-4.8,2.2-8,2.2c-2.4,0-4.7-0.4-7.1-1.1s-4.5-1.8-6.2-3.1
			l3.3-6.6c1.3,1.1,3,2.1,5.1,2.9c2,0.8,3.7,1.2,5.1,1.2s2.1-0.5,2.1-1.4c0-0.5-0.3-1-1-1.3c-0.7-0.4-1.5-0.6-2.5-0.8
			c-1-0.2-2.1-0.5-3.3-0.9c-1.2-0.4-2.3-0.8-3.3-1.3s-1.9-1.3-2.5-2.3c-0.7-1.1-1-2.3-1-3.8c0-2.7,1-4.8,3.1-6.3
			C-375.2,492.8-372.4,492-369,492z"/>
		<path id="XMLID_131_" d="M-332.9,499.3h-7.6V519h-8.8v-19.7h-7.6v-7h24V499.3z"/>
		<path id="XMLID_133_" d="M-329.1,495.9c2.8-2.5,6.3-3.8,10.5-3.8s7.7,1.3,10.5,3.8c2.8,2.6,4.1,5.8,4.1,9.7c0,4-1.4,7.2-4.1,9.8
			c-2.8,2.6-6.3,3.9-10.5,3.9s-7.7-1.3-10.5-3.9c-2.8-2.6-4.1-5.9-4.1-9.8C-333.2,501.7-331.9,498.5-329.1,495.9z M-318.5,499.5
			c-1.6,0-2.9,0.6-4,1.8c-1.1,1.2-1.7,2.7-1.7,4.5s0.6,3.3,1.7,4.5s2.5,1.8,4,1.8s2.8-0.6,3.9-1.8c1.1-1.2,1.6-2.7,1.6-4.5
			s-0.5-3.3-1.6-4.5C-315.6,500-316.9,499.5-318.5,499.5z"/>
		<path id="XMLID_136_" d="M-301.4,492.4h12.5c3.5,0,6.2,0.8,8.1,2.5s2.8,4,2.8,7c0,3.2-0.9,5.7-2.8,7.5s-4.6,2.7-8.1,2.7h-3.7v6.9
			h-8.8V492.4z M-292.6,499.1v6.3h3.2c1,0,1.7-0.3,2.2-0.9s0.8-1.4,0.8-2.4s-0.3-1.8-0.8-2.3s-1.3-0.8-2.2-0.8L-292.6,499.1
			L-292.6,499.1z"/>
		<path id="XMLID_139_" d="M-245,499.3h-7.6V519h-8.8v-19.7h-7.6v-7h24V499.3z"/>
		<path id="XMLID_141_" d="M-217,519h-8.8v-9.6h-8.2v9.6h-8.8v-26.6h8.8v10.3h8.2v-10.3h8.8V519z"/>
		<path id="XMLID_143_" d="M-190.5,499.1h-13.7v3.3h12.5v6.7h-12.5v3.3h14.1v6.7h-23v-26.6h22.5L-190.5,499.1L-190.5,499.1
			L-190.5,499.1z"/>
		<path id="XMLID_145_" d="M-165.7,492.1c2,0,4.1,0.4,6.1,1.3c2.1,0.9,3.8,2.1,5.1,3.5l-5.1,6c-0.8-1.1-1.7-2-2.8-2.6s-2.2-1-3.2-1
			c-1.6,0-2.9,0.6-4,1.7c-1,1.1-1.6,2.6-1.6,4.4s0.5,3.2,1.6,4.4c1,1.2,2.4,1.7,4,1.7c1,0,2-0.3,3.1-0.8s2.1-1.3,2.9-2.2l5.1,5.4
			c-1.5,1.6-3.3,2.9-5.4,3.9c-2.1,1-4.2,1.4-6.2,1.4c-4.1,0-7.4-1.3-10.1-3.9c-2.7-2.6-4-5.9-4-9.9c0-3.9,1.4-7.2,4.1-9.7
			C-173.3,493.4-169.8,492.1-165.7,492.1z"/>
		<path id="XMLID_147_" d="M-126.7,519h-8.8v-9.6h-8.2v9.6h-8.8v-26.6h8.8v10.3h8.2v-10.3h8.8C-126.7,492.4-126.7,519-126.7,519z"/>
		<path id="XMLID_149_" d="M-104.7,515.3h-10l-1.4,3.8h-9l11.2-26.6h9l10.8,26.6h-9.4L-104.7,515.3z M-106.8,509l-2.7-7.8l-2.8,7.8
			H-106.8z"/>
		<path id="XMLID_152_" d="M-66.5,519h-7.4l-10.5-13.6V519h-8v-26.6h7.4l10.5,13.7v-13.7h8V519z"/>
		<path id="XMLID_154_" d="M-45.4,505h7.6v11c-1.5,1-3.3,1.8-5.5,2.5c-2.2,0.6-4.2,1-6.1,1c-4.2,0-7.6-1.3-10.4-3.9
			c-2.7-2.6-4.1-5.9-4.1-9.8s1.4-7.2,4.2-9.7c2.8-2.6,6.4-3.9,10.8-3.9c2.1,0,4.2,0.4,6.3,1.1s3.8,1.7,5.3,3l-5,6
			c-0.9-0.9-1.9-1.5-3.1-2.1c-1.2-0.5-2.3-0.8-3.5-0.8c-1.7,0-3.1,0.6-4.2,1.8c-1.1,1.2-1.7,2.7-1.7,4.5s0.6,3.4,1.7,4.6
			s2.6,1.8,4.3,1.8c0.9,0,2.1-0.3,3.5-0.9L-45.4,505L-45.4,505z"/>
		<path id="XMLID_156_" d="M-11.9,499.1h-13.7v3.3h12.5v6.7h-12.5v3.3h14.1v6.7h-22.9v-26.6h22.5C-11.9,492.5-11.9,499.1-11.9,499.1
			z"/>
		<path id="XMLID_158_" d="M3.4,492c2.1,0,4.1,0.3,6.2,0.9s3.9,1.3,5.4,2.3l-3.2,6.7c-1.5-0.8-3.1-1.5-4.9-2.2c-1.8-0.6-3.2-1-4.3-1
			S1,499.1,1,499.8c0,0.5,0.3,0.9,1,1.3s1.5,0.7,2.5,0.9c1,0.2,2.1,0.5,3.3,0.9s2.3,0.9,3.3,1.4s1.9,1.3,2.5,2.5
			c0.7,1.1,1,2.4,1,3.9c0,2.8-1.1,4.9-3.2,6.4c-2.1,1.4-4.8,2.2-8,2.2c-2.4,0-4.7-0.4-7.1-1.1s-4.5-1.8-6.2-3.1l3.3-6.6
			c1.3,1.1,3,2.1,5.1,2.9c2,0.8,3.7,1.2,5.1,1.2s2.1-0.5,2.1-1.4c0-0.5-0.3-1-1-1.3c-0.7-0.4-1.5-0.6-2.5-0.8
			c-1-0.2-2.1-0.5-3.3-0.9s-2.3-0.8-3.3-1.3s-1.9-1.3-2.5-2.3c-0.7-1.1-1-2.3-1-3.8c0-2.7,1-4.8,3.1-6.3C-2.9,492.8-0.1,492,3.4,492
			z"/>
		<path id="XMLID_160_" d="M47.4,499.3h-7.6V519H31v-19.7h-7.6v-7h24V499.3z"/>
		<path id="XMLID_162_" d="M51.2,495.9c2.8-2.5,6.3-3.8,10.5-3.8s7.7,1.3,10.5,3.8c2.8,2.6,4.1,5.8,4.1,9.7c0,4-1.4,7.2-4.1,9.8
			c-2.8,2.6-6.3,3.9-10.5,3.9s-7.7-1.3-10.5-3.9c-2.8-2.6-4.1-5.9-4.1-9.8C47.1,501.7,48.5,498.5,51.2,495.9z M61.8,499.5
			c-1.6,0-2.9,0.6-4,1.8c-1.1,1.2-1.7,2.7-1.7,4.5s0.6,3.3,1.7,4.5s2.5,1.8,4,1.8s2.8-0.6,3.9-1.8c1.1-1.2,1.6-2.7,1.6-4.5
			s-0.5-3.3-1.6-4.5C64.7,500,63.4,499.5,61.8,499.5z"/>
	</g>
	<g id="XMLID_1_">
		<path id="XMLID_2_" d="M-334.9,611.8l-9.7-21.1h-10.1v21.1h-26.9v-81.3h39.3c11.1,0,19.6,2.5,25.6,7.6s9,12.2,9,21.5
			c0,11.9-4.3,20.5-12.9,25.8l16,26.4H-334.9z M-354.8,570.3h12.4c2.9,0,5.2-0.9,6.8-2.6c1.6-1.7,2.4-4.2,2.4-7.2s-0.8-5.4-2.4-7
			c-1.6-1.7-3.8-2.5-6.8-2.5h-12.4V570.3z"/>
		<path id="XMLID_56_" d="M-220.4,530.5v46.9c0,10.8-3.5,19.5-10.6,25.9c-7,6.5-16.4,9.7-28.2,9.7c-11.8,0-21.3-3.2-28.5-9.7
			s-10.8-15.1-10.8-25.9v-46.9h26.9v46.9c0,3.9,1.2,7,3.7,9.5c2.4,2.5,5.4,3.7,8.9,3.7c3.4,0,6.2-1.2,8.4-3.6s3.3-5.6,3.3-9.6v-46.9
			L-220.4,530.5L-220.4,530.5z"/>
		<path id="XMLID_65_" d="M-182.8,589.4h33.9v22.4h-60.8v-81.3h26.9V589.4z"/>
		<path id="XMLID_67_" d="M-72.9,550.9h-41.9v10h38v20.4h-38v10.1h42.9v20.4h-69.8v-81.3h68.8V550.9z"/>
		<path id="XMLID_70_" d="M-12.6,576.9h11v-15.5h24.9v15.5h10.3v19.3H23.3v15.7H-1.6v-15.7h-38.3v-17.6l23.8-48H9.5L-12.6,576.9z"/>
		<path id="XMLID_126_" d="M75.8,611.8H48.9v-60.1H34.7v-21.2h41.1C75.8,530.5,75.8,611.8,75.8,611.8z"/>
	</g>
</g>
</svg>
